HIERARCHY
ROOT pelvis
{
  OFFSET 0 100 0
  CHANNELS 6 Xposition Yposition Zposition Zrotation Xrotation Yrotation
  JOINT pelvis_right_femur
  {
    OFFSET -10.78128 -3.44521 -0.5502486
    CHANNELS 3 Zrotation Xrotation Yrotation
    JOINT right_femur_tibia
    {
      OFFSET -0.8047443 -44.0398 -0.1307829
      CHANNELS 3 Zrotation Xrotation Yrotation
      JOINT right_tibia_foot
      {
        OFFSET 3.006224 -47.83518 -5
        CHANNELS 3 Zrotation Xrotation Yrotation
        End Site
        {
          OFFSET 0 -5 15
        }
      }
    }
  }
  JOINT pelvis_left_femur
  {
    OFFSET 10.78128 -3.44521 -0.5502486
    CHANNELS 3 Zrotation Xrotation Yrotation
    JOINT left_femur_tibia
    {
      OFFSET 0.8047443 -44.0398 -0.1307829
      CHANNELS 3 Zrotation Xrotation Yrotation
      JOINT left_tibia_foot
      {
        OFFSET -4.370144 -48.10324 -4.275266
        CHANNELS 3 Zrotation Xrotation Yrotation
        End Site
        {
          OFFSET 0 -5 15
        }
      }
    }
  }
  JOINT pelvis_spine1
  {
    OFFSET 0 6.468898 -3.129235
    CHANNELS 3 Zrotation Xrotation Yrotation
    JOINT spine1
    {
      OFFSET 0 23.15396 4.99043
      CHANNELS 3 Zrotation Xrotation Yrotation
      JOINT spine2
      {
        OFFSET 0 20.79997 -5.064912
        CHANNELS 3 Zrotation Xrotation Yrotation
        JOINT neck
        {
          OFFSET 0 14.38658 9.616178
          CHANNELS 3 Zrotation Xrotation Yrotation
          End Site
          {
            OFFSET 0 20 0
          }
        }
      }
      JOINT right_manubrium
      {
        OFFSET -5.722621 16.35077 3.967754
        CHANNELS 3 Zrotation Xrotation Yrotation
        JOINT right_clavicle
        {
          OFFSET -13.16364 1.694482 -4.693211
          CHANNELS 3 Zrotation Xrotation Yrotation
          JOINT right_humerus
          {
            OFFSET -28.5034 -0.3100689 -2.792744
            CHANNELS 3 Zrotation Xrotation Yrotation
            JOINT right_radius
            {
              OFFSET -25.15693 0.02248979 -1.271978
              CHANNELS 3 Zrotation Xrotation Yrotation
              End Site
              {
                OFFSET -15 0 0
              }
            }
          }
        }
      }
      JOINT left_manubrium
      {
        OFFSET 5.722621 16.35077 3.967754
        CHANNELS 3 Zrotation Xrotation Yrotation
        JOINT left_clavicle
        {
          OFFSET 13.16364 1.694482 -4.693211
          CHANNELS 3 Zrotation Xrotation Yrotation
          JOINT left_humerus
          {
            OFFSET 29.39168 -1.063119 -2.237045
            CHANNELS 3 Zrotation Xrotation Yrotation
            JOINT left_radius
            {
              OFFSET 24.59957 -0.9528479 0.9047498
              CHANNELS 3 Zrotation Xrotation Yrotation
              End Site
              {
                OFFSET 15 -0 -0
              }
            }
          }
        }
      }
    }
  }
}
MOTION
Frames: 7
Frame Time: 0.0416666666667
157.0785 97.09043 -475.5259 -20.58449 -21.58004 -44.55729 9.950529 47.6843 -5.740044 -0 51.54163 -0 0.9491495 10.81782 -12.29011 -3.742908 -14.59901 -0.6641072 -0 17.74507 -0 -18.48163 -23.39783 24.42651 2.761091 5.902529 2.355848 -0.02768232 4.911531 3.587572 6.400416 31.82291 0.59556 -9.211166 -28.86533 13.87906 -34.06423 -26.62021 1.994488 133.7052 -32.36622 17.29185 -0 0 20.27195 -19.58065 -11.01924 12.70664 3.667913 -3.922851 -0.7802187 -113.7184 29.26636 38.54814 -0 0 19.58865 -13.37672 3.890621 30.28272
151.9587 97.1033 -469.0897 -20.34458 -21.8051 -43.90825 9.950529 47.6843 -5.740044 -0 51.54163 -0 0.9491494 10.81782 -12.29011 -3.742908 -14.59901 -0.6641072 -0 17.74507 -0 -18.48163 -23.39783 24.42651 2.761091 5.902529 2.355848 -0.02768232 4.911531 3.587572 6.400416 31.82291 0.59556 -9.211166 -28.86533 13.87906 -34.06423 -26.62021 1.994488 133.7052 -32.36622 17.29185 -0 0 20.27195 -19.58065 -11.01924 12.70664 3.667913 -3.922851 -0.7802187 -113.7184 29.26636 38.54814 -0 0 19.58865 -13.37672 3.890621 30.28272
146.9115 97.11617 -462.5964 -20.10157 -22.02761 -43.25717 9.950529 47.6843 -5.740044 -0 51.54163 -0 0.9491495 10.81782 -12.29011 -3.742908 -14.59901 -0.6641072 -0 17.74507 -0 -18.48163 -23.39783 24.42651 2.761091 5.902529 2.355848 -0.02768232 4.911531 3.587572 6.400416 31.82291 0.59556 -9.211166 -28.86533 13.87906 -34.06423 -26.62021 1.994488 133.7052 -32.36622 17.29185 -0 0 20.27195 -19.58065 -11.01924 12.70664 3.667913 -3.922851 -0.7802187 -113.7184 29.26636 38.54814 -0 0 19.58865 -13.37672 3.890621 30.28272
141.9375 97.12903 -456.0469 -19.85545 -22.24755 -42.60406 9.950529 47.6843 -5.740044 -0 51.54163 -0 0.9491494 10.81782 -12.29011 -3.742908 -14.59901 -0.6641072 -0 17.74507 -0 -18.48163 -23.39783 24.42651 2.761091 5.902529 2.355848 -0.02768232 4.911531 3.587572 6.400416 31.82291 0.59556 -9.211166 -28.86533 13.87906 -34.06423 -26.62021 1.994488 133.7052 -32.36622 17.29185 -0 0 20.27195 -19.58065 -11.01924 12.70664 3.667913 -3.922851 -0.7802187 -113.7184 29.26636 38.54814 -0 0 19.58865 -13.37672 3.890621 30.28272
137.0375 97.1419 -449.4418 -19.60625 -22.46487 -41.9489 9.950529 47.6843 -5.740044 -0 51.54163 -0 0.9491495 10.81782 -12.29011 -3.742908 -14.59901 -0.6641072 -0 17.74507 -0 -18.48163 -23.39783 24.42651 2.761091 5.902529 2.355848 -0.02768233 4.911531 3.587572 6.400416 31.82291 0.59556 -9.211166 -28.86533 13.87906 -34.06423 -26.62021 1.994488 133.7052 -32.36622 17.29185 -0 0 20.27195 -19.58065 -11.01924 12.70664 3.667913 -3.922851 -0.7802187 -113.7184 29.26636 38.54814 -0 0 19.58865 -13.37672 3.890621 30.28272
132.212 97.15477 -442.7822 -19.35398 -22.67953 -41.2917 9.950529 47.6843 -5.740044 -0 51.54163 -0 0.9491494 10.81782 -12.29011 -3.742908 -14.59901 -0.6641072 -0 17.74507 -0 -18.48163 -23.39783 24.42651 2.761091 5.902529 2.355848 -0.02768232 4.911531 3.587572 6.400416 31.82291 0.59556 -9.211166 -28.86533 13.87906 -34.06423 -26.62021 1.994488 133.7052 -32.36622 17.29185 -0 0 20.27195 -19.58065 -11.01924 12.70664 3.667913 -3.922851 -0.7802187 -113.7184 29.26636 38.54814 -0 0 19.58865 -13.37672 3.890621 30.28272
127.4616 97.16764 -436.0687 -19.09866 -22.89151 -40.63245 9.950529 47.6843 -5.740044 -0 51.54163 -0 0.9491495 10.81782 -12.29011 -3.742908 -14.59901 -0.6641072 -0 17.74507 -0 -18.48163 -23.39783 24.42651 2.761091 5.902529 2.355848 -0.02768232 4.911531 3.587572 6.400416 31.82291 0.59556 -9.211166 -28.86533 13.87906 -34.06423 -26.62021 1.994488 133.7052 -32.36622 17.29185 -0 0 20.27195 -19.58065 -11.01924 12.70664 3.667913 -3.922851 -0.7802187 -113.7184 29.26636 38.54814 -0 0 19.58865 -13.37672 3.890621 30.28272
